<?xml version="1.0" standalone="no"?>
<!DOCTYPE svg PUBLIC "-//W3C//DTD SVG 1.1//EN" "http://www.w3.org/Graphics/SVG/1.1/DTD/svg11.dtd">
<svg version="1.1" xmlns="http://www.w3.org/2000/svg" viewBox="0 0 297.03465036408966 235.54562478318994" width="297.03465036408966" height="235.54562478318994"><!-- svg-source:excalidraw --><metadata></metadata><defs><style class="style-fonts">
      </style></defs><g stroke-linecap="round" transform="translate(10 11.898395029683769) rotate(0 24.403435605309824 24.403435605309824)"><path d="M48.81 24.4 C48.81 25.82, 48.68 27.25, 48.44 28.64 C48.19 30.03, 47.82 31.42, 47.34 32.75 C46.85 34.08, 46.24 35.38, 45.54 36.61 C44.83 37.83, 44.01 39.01, 43.1 40.09 C42.19 41.17, 41.17 42.19, 40.09 43.1 C39.01 44.01, 37.83 44.83, 36.61 45.54 C35.38 46.24, 34.08 46.85, 32.75 47.34 C31.42 47.82, 30.03 48.19, 28.64 48.44 C27.25 48.68, 25.82 48.81, 24.4 48.81 C22.99 48.81, 21.56 48.68, 20.17 48.44 C18.77 48.19, 17.38 47.82, 16.06 47.34 C14.73 46.85, 13.43 46.24, 12.2 45.54 C10.98 44.83, 9.8 44.01, 8.72 43.1 C7.64 42.19, 6.62 41.17, 5.71 40.09 C4.8 39.01, 3.98 37.83, 3.27 36.61 C2.56 35.38, 1.95 34.08, 1.47 32.75 C0.99 31.42, 0.62 30.03, 0.37 28.64 C0.13 27.25, 0 25.82, 0 24.4 C0 22.99, 0.13 21.56, 0.37 20.17 C0.62 18.77, 0.99 17.38, 1.47 16.06 C1.95 14.73, 2.56 13.43, 3.27 12.2 C3.98 10.98, 4.8 9.8, 5.71 8.72 C6.62 7.64, 7.64 6.62, 8.72 5.71 C9.8 4.8, 10.98 3.98, 12.2 3.27 C13.43 2.56, 14.73 1.95, 16.06 1.47 C17.38 0.99, 18.77 0.62, 20.17 0.37 C21.56 0.13, 22.99 0, 24.4 0 C25.82 0, 27.25 0.13, 28.64 0.37 C30.03 0.62, 31.42 0.99, 32.75 1.47 C34.08 1.95, 35.38 2.56, 36.61 3.27 C37.83 3.98, 39.01 4.8, 40.09 5.71 C41.17 6.62, 42.19 7.64, 43.1 8.72 C44.01 9.8, 44.83 10.98, 45.54 12.2 C46.24 13.43, 46.85 14.73, 47.34 16.06 C47.82 17.38, 48.19 18.77, 48.44 20.17 C48.68 21.56, 48.75 23.7, 48.81 24.4 C48.87 25.11, 48.87 23.7, 48.81 24.4" stroke="#1e1e1e" stroke-width="2" fill="none"></path></g><g stroke-linecap="round" transform="translate(238.22777915347 175.36447243387224) rotate(0 24.403435605309824 24.403435605309824)"><path d="M48.81 24.4 C48.81 25.82, 48.68 27.25, 48.44 28.64 C48.19 30.03, 47.82 31.42, 47.34 32.75 C46.85 34.08, 46.24 35.38, 45.54 36.61 C44.83 37.83, 44.01 39.01, 43.1 40.09 C42.19 41.17, 41.17 42.19, 40.09 43.1 C39.01 44.01, 37.83 44.83, 36.61 45.54 C35.38 46.24, 34.08 46.85, 32.75 47.34 C31.42 47.82, 30.03 48.19, 28.64 48.44 C27.25 48.68, 25.82 48.81, 24.4 48.81 C22.99 48.81, 21.56 48.68, 20.17 48.44 C18.77 48.19, 17.38 47.82, 16.06 47.34 C14.73 46.85, 13.43 46.24, 12.2 45.54 C10.98 44.83, 9.8 44.01, 8.72 43.1 C7.64 42.19, 6.62 41.17, 5.71 40.09 C4.8 39.01, 3.98 37.83, 3.27 36.61 C2.56 35.38, 1.95 34.08, 1.47 32.75 C0.99 31.42, 0.62 30.03, 0.37 28.64 C0.13 27.25, 0 25.82, 0 24.4 C0 22.99, 0.13 21.56, 0.37 20.17 C0.62 18.77, 0.99 17.38, 1.47 16.06 C1.95 14.73, 2.56 13.43, 3.27 12.2 C3.98 10.98, 4.8 9.8, 5.71 8.72 C6.62 7.64, 7.64 6.62, 8.72 5.71 C9.8 4.8, 10.98 3.98, 12.2 3.27 C13.43 2.56, 14.73 1.95, 16.06 1.47 C17.38 0.99, 18.77 0.62, 20.17 0.37 C21.56 0.13, 22.99 0, 24.4 0 C25.82 0, 27.25 0.13, 28.64 0.37 C30.03 0.62, 31.42 0.99, 32.75 1.47 C34.08 1.95, 35.38 2.56, 36.61 3.27 C37.83 3.98, 39.01 4.8, 40.09 5.71 C41.17 6.62, 42.19 7.64, 43.1 8.72 C44.01 9.8, 44.83 10.98, 45.54 12.2 C46.24 13.43, 46.85 14.73, 47.34 16.06 C47.82 17.38, 48.19 18.77, 48.44 20.17 C48.68 21.56, 48.75 23.7, 48.81 24.4 C48.87 25.11, 48.87 23.7, 48.81 24.4" stroke="#1e1e1e" stroke-width="2" fill="none"></path></g><g stroke-linecap="round" transform="translate(39.1651666810568 176.7387535725703) rotate(0 24.403435605309824 24.403435605309824)"><path d="M48.81 24.4 C48.81 25.82, 48.68 27.25, 48.44 28.64 C48.19 30.03, 47.82 31.42, 47.34 32.75 C46.85 34.08, 46.24 35.38, 45.54 36.61 C44.83 37.83, 44.01 39.01, 43.1 40.09 C42.19 41.17, 41.17 42.19, 40.09 43.1 C39.01 44.01, 37.83 44.83, 36.61 45.54 C35.38 46.24, 34.08 46.85, 32.75 47.34 C31.42 47.82, 30.03 48.19, 28.64 48.44 C27.25 48.68, 25.82 48.81, 24.4 48.81 C22.99 48.81, 21.56 48.68, 20.17 48.44 C18.77 48.19, 17.38 47.82, 16.06 47.34 C14.73 46.85, 13.43 46.24, 12.2 45.54 C10.98 44.83, 9.8 44.01, 8.72 43.1 C7.64 42.19, 6.62 41.17, 5.71 40.09 C4.8 39.01, 3.98 37.83, 3.27 36.61 C2.56 35.38, 1.95 34.08, 1.47 32.75 C0.99 31.42, 0.62 30.03, 0.37 28.64 C0.13 27.25, 0 25.82, 0 24.4 C0 22.99, 0.13 21.56, 0.37 20.17 C0.62 18.77, 0.99 17.38, 1.47 16.06 C1.95 14.73, 2.56 13.43, 3.27 12.2 C3.98 10.98, 4.8 9.8, 5.71 8.72 C6.62 7.64, 7.64 6.62, 8.72 5.71 C9.8 4.8, 10.98 3.98, 12.2 3.27 C13.43 2.56, 14.73 1.95, 16.06 1.47 C17.38 0.99, 18.77 0.62, 20.17 0.37 C21.56 0.13, 22.99 0, 24.4 0 C25.82 0, 27.25 0.13, 28.64 0.37 C30.03 0.62, 31.42 0.99, 32.75 1.47 C34.08 1.95, 35.38 2.56, 36.61 3.27 C37.83 3.98, 39.01 4.8, 40.09 5.71 C41.17 6.62, 42.19 7.64, 43.1 8.72 C44.01 9.8, 44.83 10.98, 45.54 12.2 C46.24 13.43, 46.85 14.73, 47.34 16.06 C47.82 17.38, 48.19 18.77, 48.44 20.17 C48.68 21.56, 48.75 23.7, 48.81 24.4 C48.87 25.11, 48.87 23.7, 48.81 24.4" stroke="#1e1e1e" stroke-width="2" fill="none"></path></g><g stroke-linecap="round" transform="translate(193.63415834683417 10.000000000000028) rotate(0 24.403435605309824 24.403435605309852)"><path d="M48.81 24.4 C48.81 25.82, 48.68 27.25, 48.44 28.64 C48.19 30.03, 47.82 31.42, 47.34 32.75 C46.85 34.08, 46.24 35.38, 45.54 36.61 C44.83 37.83, 44.01 39.01, 43.1 40.09 C42.19 41.17, 41.17 42.19, 40.09 43.1 C39.01 44.01, 37.83 44.83, 36.61 45.54 C35.38 46.24, 34.08 46.85, 32.75 47.34 C31.42 47.82, 30.03 48.19, 28.64 48.44 C27.25 48.68, 25.82 48.81, 24.4 48.81 C22.99 48.81, 21.56 48.68, 20.17 48.44 C18.77 48.19, 17.38 47.82, 16.06 47.34 C14.73 46.85, 13.43 46.24, 12.2 45.54 C10.98 44.83, 9.8 44.01, 8.72 43.1 C7.64 42.19, 6.62 41.17, 5.71 40.09 C4.8 39.01, 3.98 37.83, 3.27 36.61 C2.56 35.38, 1.95 34.08, 1.47 32.75 C0.99 31.42, 0.62 30.03, 0.37 28.64 C0.13 27.25, 0 25.82, 0 24.4 C0 22.99, 0.13 21.56, 0.37 20.17 C0.62 18.77, 0.99 17.38, 1.47 16.06 C1.95 14.73, 2.56 13.43, 3.27 12.2 C3.98 10.98, 4.8 9.8, 5.71 8.72 C6.62 7.64, 7.64 6.62, 8.72 5.71 C9.8 4.8, 10.98 3.98, 12.2 3.27 C13.43 2.56, 14.73 1.95, 16.06 1.47 C17.38 0.99, 18.77 0.62, 20.17 0.37 C21.56 0.13, 22.99 0, 24.4 0 C25.82 0, 27.25 0.13, 28.64 0.37 C30.03 0.62, 31.42 0.99, 32.75 1.47 C34.08 1.95, 35.38 2.56, 36.61 3.27 C37.83 3.98, 39.01 4.8, 40.09 5.71 C41.17 6.62, 42.19 7.64, 43.1 8.72 C44.01 9.8, 44.83 10.98, 45.54 12.2 C46.24 13.43, 46.85 14.73, 47.34 16.06 C47.82 17.38, 48.19 18.77, 48.44 20.17 C48.68 21.56, 48.75 23.7, 48.81 24.4 C48.87 25.11, 48.87 23.7, 48.81 24.4" stroke="#1e1e1e" stroke-width="2" fill="none"></path></g><g stroke-linecap="round"><g transform="translate(60.19018829169488 37.123238056567885) rotate(0 66.77025259738792 0)"><path d="M0 0 C22.26 0, 111.28 0, 133.54 0 M0 0 C22.26 0, 111.28 0, 133.54 0" stroke="#1e1e1e" stroke-width="2" fill="none"></path></g></g><mask></mask><g stroke-linecap="round"><g transform="translate(37.096717468538145 60.21670887972462) rotate(0 10.793687449953666 57.73367705789181)"><path d="M0 0 C3.6 19.24, 17.99 96.22, 21.59 115.47 M0 0 C3.6 19.24, 17.99 96.22, 21.59 115.47" stroke="#1e1e1e" stroke-width="2" fill="none"></path></g></g><mask></mask><g stroke-linecap="round"><g transform="translate(88.80601083343242 200.28362974191432) rotate(0 74.04971622642648 0)"><path d="M0 0 C24.68 0, 123.42 0, 148.1 0 M0 0 C24.68 0, 123.42 0, 148.1 0" stroke="#1e1e1e" stroke-width="2" fill="none"></path></g></g><mask></mask><g stroke-linecap="round"><g transform="translate(226.66302520477723 57.32101395831464) rotate(0 15.765093282894782 58.836129117826204)"><path d="M0 0 C5.26 19.61, 26.28 98.06, 31.53 117.67 M0 0 C5.26 19.61, 26.28 98.06, 31.53 117.67" stroke="#1e1e1e" stroke-width="2" fill="none"></path></g></g><mask></mask></svg>